{"title":"Queen of the South S01E07 720p WEB-DL HEVC 2CH x265","uid":15526388,"size":317534451,"categoryP":"video","categoryS":"hd___tv_shows","magnet":"?xt=urn:btih:ecbf4edc592e41dd1c567c44c29edbee224528c2&amp;dn=Queen+of+the+South+S01E07+720p+WEB-DL+HEVC+2CH+x265&amp;tr=udp%3A%2F%2Ftracker.leechers-paradise.org%3A6969&amp;tr=udp%3A%2F%2Fzer0day.ch%3A1337&amp;tr=udp%3A%2F%2Fopen.demonii.com%3A1337&amp;tr=udp%3A%2F%2Ftracker.coppersurfer.tk%3A6969&amp;tr=udp%3A%2F%2Fexodus.desync.com%3A6969","seeders":0,"leechers":0,"uploader":"nayhtut","files":1,"time":1470788008,"description":"[Screenshots]\r\n \nhttps://s9.postimg.org/pgvacebvz/Queen_of_the_South_S01_E07_720p_WEB_DL_HEVC_2_CH_x.jpg \nhttps://s9.postimg.org/puwmbzvzj/Queen_of_the_South_S01_E07_720p_WEB_DL_HEVC_2_CH_x.jpg \nhttps://s9.postimg.org/p6sd6smnj/Queen_of_the_South_S01_E07_720p_WEB_DL_HEVC_2_CH_x.jpg\r\n\r\n\r\nSource:  Queen of the South S01E07 1080p WEB-DL DD5.1 H.264-VietHD (1.55 GB)\r\n\r\n \r\n __--__--__--__--__--__--__--__--__--__--__--__--__--\r\n\r\n\r\nComplete name                            : Queen.of.the.South.S01E07.720p.WEB-DL.HEVC.2CH.x265.mkv\r\nFormat                                   : Matroska\r\nFormat version                           : Version 4 / Version 2\r\nFile size                                : 303 MiB\r\nDuration                                 : 40mn 58s\r\nOverall bit rate                         : 1 033 Kbps\r\nWriting application                      : Lavf57.25.100\r\nWriting library                          : Lavf57.25.100\r\n\r\nVideo\r\n\r\nID                                       : 1\r\nFormat                                   : V_MPEGH/ISO/HEVC\r\nCodec ID                                 : V_MPEGH/ISO/HEVC\r\nDuration                                 : 40mn 58s\r\nBit rate                                 : 821 Kbps\r\nWidth                                    : 1 274 pixels\r\nHeight                                   : 720 pixels\r\nDisplay aspect ratio                     : 16:9\r\nFrame rate                               : 25.000 fps\r\nBits/(Pixel*Frame)                       : 0.036\r\nStream size                              : 241 MiB (79%)\r\nWriting library                          : Lavc57.48.101 libx265\r\nLanguage                                 : English\r\nDefault                                  : Yes\r\nForced                                   : No\r\nDURATION                                 : 00:40:58.251000000\r\nNUMBER_OF_FRAMES                         : 58938\r\nNUMBER_OF_BYTES                          : 1541219938\r\n_STATISTICS_WRITING_APP                  : mkvmerge v9.2.0 ('Photograph') 64bit\r\n_STATISTICS_WRITING_DATE_UTC             : 2016-08-09 02:39:01\r\n_STATISTICS_TAGS                         : BPS DURATION NUMBER_OF_FRAMES NUMBER_OF_BYTES\r\n\r\nAudio\r\n\r\nID                                       : 2\r\nFormat                                   : AC-3\r\nFormat/Info                              : Audio Coding 3\r\nMode extension                           : CM (complete main)\r\nFormat settings, Endianness              : Big\r\nCodec ID                                 : A_AC3\r\nDuration                                 : 40mn 58s\r\nBit rate mode                            : Constant\r\nBit rate                                 : 192 Kbps\r\nChannel(s)                               : 2 channels\r\nChannel positions                        : Front: L R\r\nSampling rate                            : 48.0 KHz\r\nBit depth                                : 16 bits\r\nCompression mode                         : Lossy\r\nStream size                              : 56.3 MiB (19%)\r\nWriting library                          : Lavc57.24.102 ac3\r\nLanguage                                 : English\r\nDefault                                  : Yes\r\nForced                                   : No\r\nDURATION                                 : 00:40:58.239000000\r\nNUMBER_OF_FRAMES                         : 76818\r\nNUMBER_OF_BYTES                          : 117992448\r\n_STATISTICS_WRITING_APP                  : mkvmerge v9.2.0 ('Photograph') 64bit\r\n_STATISTICS_WRITING_DATE_UTC             : 2016-08-09 02:39:01\r\n_STATISTICS_TAGS                         : BPS DURATION NUMBER_OF_FRAMES NUMBER_OF_BYTES\r\n\r\nText\r\n\r\nID                                       : 3\r\nFormat                                   : ASS\r\nCodec ID                                 : S_TEXT/ASS\r\nCodec ID/Info                            : Advanced Sub Station Alpha\r\nCompression mode                         : Lossless\r\nWriting library                          : Lavc57.48.101 ssa\r\nLanguage                                 : English\r\nDefault                                  : Yes\r\nForced                                   : No\r\nDURATION                                 : 00:40:24.004000000\r\nNUMBER_OF_FRAMES                         : 798\r\nNUMBER_OF_BYTES                          : 20849\r\n_STATISTICS_WRITING_APP                  : mkvmerge v9.2.0 ('Photograph') 64bit\r\n_STATISTICS_WRITING_DATE_UTC             : 2016-08-09 02:39:01\r\n_STATISTICS_TAGS                         : BPS DURATION NUMBER_OF_FRAMES NUMBER_OF_BYTES\r\n\r\n __--__--__--__--__--__--__--__--__--__--__--__--__--\r\n\r\n \r\nIMDb: http://www.imdb.com/title/tt1064899\r\n\r\nAfter adding torrent with magnet link,\r\n\r\nplease add this  following trackers list to the torrent for better seeds.\r\n\r\n\r\nudp://tracker.coppersurfer.tk:6969/announce\r\n\r\nudp://tracker.opentrackr.org:1337/announce\r\n \nhttp://tracker.baravik.org:6970/announce\r\n \nhttp://tracker2.wasabii.com.tw:6969/announce\r\n\r\nudp://9.rarbg.me:2710/announce\r\n\r\n\r\n__--__--__--__--__--__--__--__--__--__--__--__--__--\r\n\r\n\r\nEnjoy!","torrent":{"xt":"urn:btih:ecbf4edc592e41dd1c567c44c29edbee224528c2","amp;dn":"Queen+of+the+South+S01E07+720p+WEB-DL+HEVC+2CH+x265","amp;tr":["udp%3A%2F%2Ftracker.leechers-paradise.org%3A6969","udp%3A%2F%2Fzer0day.ch%3A1337","udp%3A%2F%2Fopen.demonii.com%3A1337","udp%3A%2F%2Ftracker.coppersurfer.tk%3A6969","udp%3A%2F%2Fexodus.desync.com%3A6969"],"infoHash":"ecbf4edc592e41dd1c567c44c29edbee224528c2","infoHashBuffer":{"type":"Buffer","data":[236,191,78,220,89,46,65,221,28,86,124,68,194,158,219,238,34,69,40,194]},"announce":[],"urlList":[]}}